<?xml version="1.0" encoding="UTF-8"?>
<svg version="1.1" viewBox="0 0 2048 525" xmlns="http://www.w3.org/2000/svg">
  <title>Skyss logo</title>
  <path
    d="m780 524.01-10.5-0.8427-25-2.3148-40-5.7182-8.5-1.3863v-3.4534l8.111-48.791 1.389-1.333 15 2.6392 38 4.2098 23 1.9857 45 1.252 31.728-2.248 17.553-4.121 10.611-6.3847 6.7244-9.4023 1.9792-5.6313 1.9793-5.6313 0.93134-7.1675 0.93135-7.1675 0.0309-6.75 0.03085-6.75h-1.8692l-13.631 2.8453-28 3.6487-54-0.1062-29-3.5037-18.733-4.0436-15.267-4.9812-16.238-7.6066-12.762-8.6157-13.122-13.137-6.3715-9.3513-7.9552-15.942-5.1138-17.647-1.6677-9.0298-1.6677-9.0298-0.34844-93.75-0.34845-93.75h74.095l0.0448 163.5 0.53727 9 0.53728 9 0.9635 6.8409 0.96351 6.8409 3.9726 11.318 7.0102 10.189 7.5591 6.0747 12.756 6.4391 18.156 4.6046 20 2.5452 44-0.055 31.764-3.4472 2.368-0.90029 2.368-0.90023v-231.05h74.061l-0.66654 304.5-1.2762 7.4443-1.2762 7.4443-4.8398 18.627-7.8 15.795-7.9128 10.689-8.7896 8.069-9 6.1674-14.577 7.3275-17.423 5.8161-20.325 4.1222-24.675 3.1022-65 0.74454zm1102.5-43.17-13.985-11.164-21-18.432-13.001-13.37-13.001-13.37-15.192-19-14.043-21-11.436-20.483-4.7515-10.758-4.7514-10.758-6.2764-19-5.958-24-2.5806-15-2.5807-15-1.9077-16.5-1.9078-16.5-2.1556-26-1.9206-41-0.036-44.5h302v43.89l-1.0289 20.305-1.029 20.305-1.4885 18-1.4886 18-4.0988 31-4.9316 27-6.902 26.386-3.8898 10.307-3.8897 10.307-4.039 8.7004-4.0391 8.7004-11.499 19.599-11.564 17.256-16.471 20.744-26.141 26.694-19 16.527-28.937 23.279h-1.0924zm95.218-78.586 1.424-1.75 9.0096-13.5 9.0097-13.5 14.71-30 3.6364-10.5 3.6365-10.5 3.3458-13.582 3.3457-13.582 2.0682-12.418 2.0681-12.418 2.0003-16 2.0002-16 1.5881-19.5 1.588-19.5 0.5512-32.5 0.5513-32.5-0.9995 1-0.9994 1-13.38 16.5-13.38 16.5-111.98 136.83-9.8746 12.169-66.91 82-3.0252 3.5h158.59zm-81.703-95.789v-0.53923l-135.18-165.33-2.4208-3.0453-2.4207-3.0453 0.157 25.5 0.1571 25.5 1.5942 28 1.1286 13.5 1.1287 13.5 4.8262 37.268 2.0696 10.866 2.0695 10.866 0.9816 3.75 0.9815 3.75h124.92zm-1808 107.89-4.5-0.30031-41-2.2492-37.479-3.446-1.2625-1.2625 9.0934-51.278 1.2123-1.2123 26.435 2.4517 37 3.2476 66 0.1986 17.44-2.5665 15.56-3.9653 14-6.7469 6.58-6.1817 3.876-8.5396v-9l-3.6691-8.0774-9.7195-8.5555-14.067-6.7474-17.537-5.0656-27.463-5.1812-46-8.9694-20.785-5.0756-15.215-5.0808-10-5.024-11.15-7.5601-14.025-15.017-7.1365-14.646-3.3182-12-1.0951-23 4.2461-17.748 7.4129-14.107 10.96-11.838 11.106-7.5352 14-7.0096 15.022-5.1535 24.978-4.9993 19-2.0188 32-1.3128 53 2.3028 25 1.9475 31 3.0747 1.6071 0.47086 1.6071 0.47087-0.7302 4.4559-7.0768 46.926-0.20362 0.19508-0.20361 0.19509-34.637-3.6987-35.833-2.3514-59.53 1.0706-15.477 2.9926-12.884 4.2876-8.2917 6.0065-3.803 8.3766v8l3.6435 8 7.9872 7.2008 10.861 5.138 15.965 4.022 66 11.278 22 4.7627 19 5.8379 10.496 4.2299 12.504 6.3043 11.062 7.5037 12.044 12.875 5.314 9.0677 2.6868 7.8902 2.6868 7.8902 0.9512 26.024-1.5556 7.522-1.5556 7.522-4.1993 11.224-7.8375 12.126-12.026 11.841-10.751 7.1363-13.819 6.9347-14 5.2964-23.406 5.7411-21.594 3.1229-27 2.0051-45-0.34455-4.5-0.30032zm1021.5 0.0471-6-0.35019-35-2.0883-38-3.127-4.1356-1.3319 4.7741-26.5 4.774-26.5 0.088-0.1178 14.5 1.5602 49 4.357 67 0.20054 17.44-2.5665 15.56-3.932 14.217-6.9709 4.0655-4.4106 4.0656-4.4106 2.1406-7.7094v-5l-1.0062-3.6227-1.0063-3.6227-8.2196-9.338-20.304-9.9169-19.173-4.8635-49.78-9.2668-36.888-8.0553-17.83-5.8267-15.459-8.0428-13.153-10.849-9.2074-12.903-2.8666-6.3463-2.8667-6.3463-3.485-15.75 1.004-25.25 4.6076-13.725 7.1448-11.796 12-12.144 14.271-8.8998 17.286-6.9701 19.678-4.9744 19.258-2.891 33.507-2.3311 44 1.3143 32 1.9244 44 4.2263 0.9009 0.83402 0.901 0.83401-7.5718 50.598-0.1474 0.19897-0.1473 0.19896-34.935-3.8015-30.659-2.0965h-51.92l-19.421 2.106-16.486 3.8532-9.5142 4.8544-5.3728 5.6865-2.1272 5.6302v9.2384l4.1488 8.5704 9.5262 6.9928 9.4894 4.0676 15.336 3.883 72 12.296 26.287 6.7094 19.713 7.3592 10 5.0124 14.656 10.098 10.975 12.128 6.8492 14.015 1.7465 6.5 1.7466 6.5v28l-1.7415 6.5-1.7414 6.5-3.9912 8.1447-3.9911 8.1447-7.0751 7.576-7.0752 7.576-13.357 8.8251-12.132 6.0765-19.868 6.9085-23 5.1283-27 3.3104-61 0.55742-6-0.35018zm308-0.0769-6-0.3014-34-2.008-40.487-3.3849-2.2018-1.3608 9.128-51.538 1.1254-1.1253 26.435 2.4517 37 3.24 67 0.20615 16-2.5232 17-4.2173 12-6.04 3.1977-2.4386 3.1978-2.4386 2.147-3.6389 2.1469-3.6389 0.5444-5.274 0.5443-5.274-1.6916-4.4294-1.6917-4.4294-8.521-7.8544-8.8738-5.1528-13-5.0678-16-3.9656-49-9.1784-33-7.0273-14-4.0209-15.729-6.2079-14.271-9.3535-13.446-14.309-8.9479-18.52-3.3508-18 1.2006-20 1.6094-6 1.6093-6 3.4588-6.6022 3.4587-6.6022 10.1-11.332 6.1539-4.3641 6.154-4.3641 12.41-6.219 13.02-4.9007 23.57-5.2998 23-2.6873 34-1.3374 51 2.2321 38 3.0236 21.496 2.6153 0.8016 0.83735-3.8459 25.364-3.846 25.364-0.3028 0.27629-0.3029 0.27628-34.569-3.6581-35.901-2.3558-59.53 1.0706-15.477 2.9926-12.884 4.2876-8.0669 5.8437-3.0146 5.8295-0.6231 3.897-0.6232 3.897 1.1484 4.2647 1.1483 4.2647 3.6389 4.0278 3.6388 4.0278 13.918 7.009 21.197 4.7452 60 10.106 19 4.1657 18 5.0597 14.575 5.7551 12.425 6.2644 11.181 7.5845 6.703 7.2398 6.7029 7.2398 3.3833 7.0811 3.3834 7.0811 3.146 15.416v21.169l-3.1778 15.416-3.2599 7-3.2598 7-9.5692 12.629-13.233 10.528-10.556 6.3588-19.191 8.1994-26.252 6.6019-22 3.1725-27 2.0051-45-0.37331zm-1097.5-208.32v-206h71v225h15.116l86.384-65.977 44.607-34.043 94.556 0.51933-157.71 122-4.3591 3.3114 2.9014 3.509 76 73.255 78 74.979 8.5 7.7664v1.6787l-92.5-0.018-26-25.6-55.867-54.441-55.867-54.442-13.766-0.58762v135.09h-71z"
    fill="#fff" />
</svg>